<svg id="Слой_1" data-name="Слой 1" xmlns="http://www.w3.org/2000/svg" viewBox="0 0 817 565.78"><path d="M414.09,365.82a42.23,42.23,0,0,0-4,3c-5.24,5-10.3,10.12-15.63,15-4,3.62-7.6,7.58-11.65,11.07s-7.78,7.63-11.76,11.34c-.19.18-.38.37-.56.57-2.32,2.5-3.15,5.26-1.92,8.62,1.58,4.31,3,8.69,4.39,13.07,1.11,3.54,2.09,7.12,3.18,10.66,1,3.32.92,6.62,1,10,0,1.62-.84,3-1.35,4.49-1.24,3.57-3.75,6.3-6.58,8.67-1,.86-2.51,1.17-3.78,1.74a8.6,8.6,0,0,1-4.73.76c-1.52-.2-3.16.63-4.57-.51-4.51-1.18-5.69-1.82-8.42-4.71-1.88-2-2.7-4.52-3.56-7-.67-2-.71-4.08-1.5-6a4.53,4.53,0,0,1-.07-1.57c0-2.48-.07-5,0-7.44,0-1.08-.35-2.17.42-3.29.57-.84-.45-2.26.62-3.18,1.16-6.49,3-10.47,5.46-15.55a23,23,0,0,0,1.82-4c.32-1.24,0-2.62.19-3.92a6.74,6.74,0,0,0-1.44-4.47c-1.79-2.82-3.66-5.58-5.5-8.36a33.82,33.82,0,0,0-2-2.88c-1.39-1.66-3-3.17-4.29-4.88-2.36-3.08-5.26-5.63-7.91-8.42-.52-.55-.83-1.28-1.34-1.83-1.37-1.44-2-1.49-3.65-.35-1.31.92-2.66,1.8-3.87,2.83a118.56,118.56,0,0,1-11.13,8.46,28.22,28.22,0,0,1-6.42,3.12c-1.1.38-2.44.09-3.67.15-4.95.25-8.88-2-12.56-5a159.13,159.13,0,0,1-15.88-15.49c-6.5-7-13.56-13.39-19.94-20.45-5.8-6.42-12.19-12.23-18.1-18.53-9.49-10.11-19.48-19.74-29.09-29.73-3-3.09-6.13-6-8.85-9.35-2-2.38-4.26-4.39-6.25-6.7a24.92,24.92,0,0,1-4.69-9.23c-.56-1.82,0-3.71-.9-5.47-.29-.58.35-1.58.44-2.4s-.08-1.61,0-2.39a28.66,28.66,0,0,1,6.2-11.52,3.75,3.75,0,0,0,.66-4.84c-1.2-2.09-2.53-4.11-3.88-6.11a93.76,93.76,0,0,1-5.29-9c-1.26-2.4-2.49-4.81-3.63-7.27-1-2.17-1.86-4.38-2.7-6.6s-1.52-4.34-2.13-6.57c-.81-3-1.56-5.93-2.1-9-.41-2.33-.62-4.7-1.09-7-.63-3.06-.31-6.08-.41-9.11s-.06-6,0-9a18.28,18.28,0,0,1,.5-2.7c.17-.91-.27-1.84.46-2.76.35-.43,0-1.37.1-2.07s.36-1.27.51-1.91a79.73,79.73,0,0,1,4-12.72c.77-1.8,1.4-3.68,2.28-5.43a81.49,81.49,0,0,1,5.82-10.09q3.06-4.35,6.35-8.55c2.77-3.56,6.16-6.49,9.26-9.7a72.13,72.13,0,0,1,11.46-9.5c2.28-1.55,4.64-3,6.92-4.56a39.8,39.8,0,0,1,7-3.73c4.15-1.73,8.31-3.47,12.61-4.86A93.45,93.45,0,0,1,246.2,99a50.73,50.73,0,0,1,7.24-1.29c1.13-.08,2.32-.36,3.51-.45s2.51-.4,3.77-.49a25.42,25.42,0,0,0,3.71-.06c4.35-1,8.73-.29,13.09-.46a30.31,30.31,0,0,1,3.5.48c1.15.09,2.41-.28,3.43.09a15.5,15.5,0,0,0,3.79.48c1.17.14,2.33.4,3.5.58,2.61.41,5.16,1.19,7.74,1.81,3.13.75,6.11,2,9.19,2.84,1.12.32,2,1.42,3.26,1.13,3.33,1.6,6.74,3,10,4.83a116.46,116.46,0,0,1,10.74,6.81c2.72,1.92,5.27,4.06,7.85,6.16,4.66,3.79,8.55,8.35,12.9,12.45a32.46,32.46,0,0,1,4.16,5.18,25.72,25.72,0,0,0,2.63,3.17,15.07,15.07,0,0,1,2.64,3.69c.51,1,1.53,1,2,0a61.06,61.06,0,0,1,4.3-7,29.67,29.67,0,0,1,3.22-4.25c1-1.06,1.9-2.22,2.83-3.34s2.23-1.72,2.65-3.16c0-.15.24-.25.37-.38,2.69-2.87,5.47-5.67,8.05-8.64,1.69-1.93,3.45-3.8,5-5.89a6.79,6.79,0,0,0,1.27-4.24c-.08-3.14,1.24-5.45,3.14-7.8,2.09-2.58,4.38-5,6.3-7.72a59.9,59.9,0,0,1,4.28-4.89c1.8-2,3.24-4.19,3.44-7.11.16-2.34,1.8-3.94,3.85-5a23.75,23.75,0,0,0,2.2-1.1c1.56-1,2.91-.48,4.16.49.76.6,1.38,1.38,2.08,2a2.47,2.47,0,0,0,3.25.22c1.63-1.22,3.21-2.52,4.84-3.75,2.3-1.74,4.62-3.44,6.88-5.23,2.46-1.93,4.46-1.62,6.69.67.7.71,1.82,1.2,1.62,2.51,1.24,1,.12,2-.39,2.57a19.73,19.73,0,0,1-3.31,2.85c-2.5,1.85-5,3.65-7.57,5.46-1.09.77-2.27,1.44-3.3,2.28a3.14,3.14,0,0,0-1.25,1.83,4.19,4.19,0,0,0,1,2.18c1.65,2.42,3.35,4.83,5.08,7.19.33.45,1,.62,1.4,1.06.72.83,1.31.43,2,0a19.62,19.62,0,0,0,2.29-1.5,71.21,71.21,0,0,1,8.3-6.25,14.81,14.81,0,0,1,3.34-1.6,5.35,5.35,0,0,1,6.71,3.67,1.34,1.34,0,0,1-.16.89c-.73,1.27-1,2.94-2.78,3.33a95.43,95.43,0,0,1-9.24,6.58c-.89.61-1.81,1.19-2.71,1.79-1.45,1-1.72,2-.94,3.61.46,1,1,1.9,1.41,2.87.26.58.81,1.48.6,1.76-.58.76-.42,1.75-1.21,2.47a8.75,8.75,0,0,1-8.9,2.21,7.47,7.47,0,0,0-5.19.65c-3.75,1.64-7.58,3.1-11.3,4.82-2.59,1.2-5.37,2-8,3.23a6.14,6.14,0,0,1-1.52.19c-2.45.38-4.8-.47-7.22-.6a10.1,10.1,0,0,0-6.22,1.71,43,43,0,0,0-8.76,7.08,59.5,59.5,0,0,0-5.93,8.17c-1.6,2.59-2.84,5.41-4.48,8-2,3.07-3.34,6.43-5.11,9.59a86.74,86.74,0,0,0-4.18,7.84c-.5,1.18-1.37,1.41-2.21,1.79a1.83,1.83,0,0,1-1.91-.46,10.36,10.36,0,0,1-2.32-3.58,85.9,85.9,0,0,0-8.72-13.94c-1.47-1.9-3-3.72-4.49-5.59A107,107,0,0,0,336.78,135c-2.89-2.71-6.18-5-9.33-7.49-3.73-2.89-7.8-5.21-11.75-7.71a21.48,21.48,0,0,0-6.24-2.9,36.15,36.15,0,0,1-4-1.75,81.77,81.77,0,0,0-12.69-4c-3.13-.67-6.19-1.67-9.45-1.58-2.08-1-4.36-.07-6.4-.62-2.27-.6-4.48-.38-6.72-.41-1.34,0-2.68.39-4,.48s-2.93-.29-4.23.1c-1.47.43-2.92.21-4.32.49a83.08,83.08,0,0,0-9.31,1.91c-2.36.76-4.87,1-7.22,1.82-1.63.55-3.27,1.11-4.83,1.81C232.1,117,228,118.84,224,121a54.2,54.2,0,0,0-8,5.17c-2.82,2.22-5.63,4.44-8.39,6.74a55.82,55.82,0,0,0-5.7,5.37c-2.21,2.47-4.26,5.1-6.3,7.72a63.3,63.3,0,0,0-7,11.47A57.89,57.89,0,0,0,184,170.16c-.58,2.61-1.16,5.21-1.65,7.84-.32,1.73-.05,3.47-.47,5.1-1,3.74-.22,7.5-.48,11.23-.09,1.29.76,2.41.57,3.77a9.94,9.94,0,0,0,.39,3.52c.3,1.38.3,2.86.62,4.28.44,1.94.73,3.9,1.36,5.82.56,1.71.93,3.51,1.57,5.2,1.35,3.61,3,7.08,4.67,10.56,1.83,3.91,4.42,7.36,6.44,11.16a12.43,12.43,0,0,0,2.05,2.6c.95,1,1.85.9,2.91.1,2.39-1.79,4.29-4.12,6.58-6,2.11-1.71,3.85-3.81,6-5.45,2.46-1.88,4.35-4.32,6.73-6.21,2.21-1.75,4-3.87,6.18-5.63,1.27-1.05,2.43-2.22,3.72-3.22a8.87,8.87,0,0,1,7.07-2.13c1.26.21,2,1.18,2.9,2,.56.52.3,1.14.36,1.72a4.61,4.61,0,0,1-.75,3.15c-1.23,1.9-2.21,4-4.48,5-.23.1-.38.37-.57.56-3.18,3-6.22,6.19-9.6,9-3.2,2.63-5.85,5.82-9,8.45-1.27,1.06-.82,2.55-1.64,3.62,0,.06.24.51.38.52a5.18,5.18,0,0,0,3.55-1,13.38,13.38,0,0,0,1.14-1.12q9.21-9.21,18.43-18.42a19.77,19.77,0,0,1,5.52-4,3,3,0,0,1,3.32.14,23.32,23.32,0,0,1,3.1,2.77c.6.65.12,3.77-.62,4.64-1.28,1.51-2.55,3.06-3.95,4.47q-9.56,9.63-19.17,19.18c-1.07,1.07-1.9,2.2-1.54,3.83a2.58,2.58,0,0,0,.46.18,4.31,4.31,0,0,0,4.11-1.66c2.67-2.84,5.64-5.41,8.21-8.33,3.78-4.29,7.87-8.28,11.88-12.34A6.23,6.23,0,0,1,256,233a7.34,7.34,0,0,1,3.27,1.64,3.4,3.4,0,0,1,.85,2.82,4.07,4.07,0,0,1-.74,1.85,27.26,27.26,0,0,1-3.55,5.17c-.52.55-.87,1.27-1.4,1.8-5.5,5.53-11,11.07-16.56,16.54a14.24,14.24,0,0,0-2.24,3.6c-.14.26,0,.66,0,1,1-.35,1.8-.62,2.6-1a3.5,3.5,0,0,0,1-.71q6.94-6.66,13.88-13.34c1.72-1.67,3.34-3.44,5.1-5.05a14.92,14.92,0,0,1,5-3.4c1.88-.66,3.74-1.34,5.81-.38a3.37,3.37,0,0,1,1.76,4.52,26.86,26.86,0,0,1-3.9,6.11,72.43,72.43,0,0,1-8.77,9.08c-3.71,3.41-7.57,6.66-11.18,10.18a16.53,16.53,0,0,0-2.2,3.37c-.19.31-.38,1.19.32,1.27.45.06.77.95,1.47.14.89-1,2.14-1.73,3.12-2.68,2.67-2.6,5.13-5.41,7.94-7.84,4.13-3.58,7.86-7.55,11.81-11.3a21.79,21.79,0,0,1,4.26-3.18,4.38,4.38,0,0,1,5.94,1.1c2,2.49,1.73,4.91-.53,7.26s-4.2,5-6.63,7.06c-5.61,4.85-10.58,10.33-15.9,15.48a9.36,9.36,0,0,0-1.67,2.23,1.26,1.26,0,0,0,.4,1.62c.58.49.84,0,1.31-.14a12.14,12.14,0,0,0,5-3.42c1.32-1.43,2.88-2.66,4.1-4.16,4.46-5.49,9.86-10.06,14.7-15.18a9.86,9.86,0,0,1,4.22-2.64,4.47,4.47,0,0,1,5.88,4,6.74,6.74,0,0,1-1.71,4.63c-1.7,2.36-3.94,4.2-5.82,6.37-5.37,6.22-11.43,11.74-17.12,17.63a7.48,7.48,0,0,0-1.42,2.07,1.33,1.33,0,0,0,.59,1.59c.49.36.73,0,1.11-.22,1.32-.86,2.76-1.54,4-2.5A19.53,19.53,0,0,0,272,293.6c1.53-1.6,3.15-3.12,4.69-4.72,3.28-3.41,6.52-6.86,9.78-10.3a39,39,0,0,1,5-4,7.1,7.1,0,0,1,5.85-1.17c1.21.24,2.08,1.55,2.73,2.87,1.28,2.58-.27,4.37-1.54,6.13a6.89,6.89,0,0,1-3.09,2.71c-.53.2-.89.84-1.33,1.28-2.32,2.32-4.61,4.67-7,6.95-3,2.91-6.11,5.77-9.17,8.65-.19.18-.35.46-.57.54-2.07.75-2.45,2.4-2.38,4.31,0,.26,0,.52,0,.87a4.28,4.28,0,0,0,4.39-1.29c6.74-6.61,13.52-13.17,20.27-19.76a7.88,7.88,0,0,1,4.05-2.4,36.67,36.67,0,0,1,4.93-.3c.13,0,.28.33.4.52a6.64,6.64,0,0,1,.1,7.14,17.24,17.24,0,0,1-5.63,6.15,8.09,8.09,0,0,0-1.34,1.28c-1.7,1.69-3.27,3.52-5.11,5-2.64,2.18-4.89,4.76-7.51,6.93a22.22,22.22,0,0,0-4.61,4.73,11.05,11.05,0,0,1-.58,1.08c-.58.67.6.92.3,1.49a5.47,5.47,0,0,0,.91,0,8.77,8.77,0,0,0,4.43-2.79c4.91-5,9.9-9.91,14.84-14.87a70.45,70.45,0,0,1,8.75-7.14,4,4,0,0,1,4.51.28,5.44,5.44,0,0,1,2.16,4.45,7.12,7.12,0,0,1-1.2,3,14.89,14.89,0,0,1-2.94,3.57q-9.25,9.08-18.59,18c-1.4,1.34-1.88,3.14-2.83,4.7-.06.09.08.3.13.46l.38-.14a13.62,13.62,0,0,0,6.44-3.73c4.44-4.59,9-9.07,13.53-13.55,1.1-1.09,2.37-2,3.52-3a21.17,21.17,0,0,1,3.35-2.83c2.37-1.42,4.49-1.28,6.38.48a5.54,5.54,0,0,1,1.85,2.69,4.06,4.06,0,0,1-1.43,3.9c-4.85,4.81-9.63,9.67-14.5,14.46-2.81,2.76-5.73,5.4-8.61,8.09a4,4,0,0,0-1.44,3.74c1.81.5,3.15-.26,4.54-1.46,4.54-3.91,8.51-8.42,13-12.37,3-2.63,5.66-5.49,8.57-8.14a8.22,8.22,0,0,1,6.2-2.38,5.3,5.3,0,0,1,3.08,1.62c.82.67.68,1.49.78,2.36a5.86,5.86,0,0,1-2.23,5.48c-1.16,1-2.1,2.16-3.23,3.16-5.67,5-11,10.46-16.32,15.8a4.09,4.09,0,0,1-1,.84,4.59,4.59,0,0,0-2.81,4.2c0,.22-.25.43-.3.67a6.7,6.7,0,0,0-.05.9,2.47,2.47,0,0,0,.72,0c.23-.08.46-.44.61-.4,1.84.53,2.73-.79,3.78-1.84a86.3,86.3,0,0,0,6.16-6.24c3.79-4.67,8.34-8.57,12.48-12.88a28.27,28.27,0,0,1,3.22-2.47c1.71-1.35,3.73-1.16,5.67-1a2.48,2.48,0,0,1,1.71,1.37,7.15,7.15,0,0,1-1,7.35,44.59,44.59,0,0,1-7,7.42c-4,3.25-7.32,7.09-11,10.59a37.27,37.27,0,0,0-5.45,6c-.2.31-.44.81-.32,1.07a1.49,1.49,0,0,0,1,.69,4.34,4.34,0,0,0,3.07-.84c1.68-1.12,3.52-2.17,4.36-4.22.19-.45.73-.76,1.1-1.14,3.89-3.89,7.67-7.88,11.7-11.61a38.88,38.88,0,0,1,7.4-5.86,4.62,4.62,0,0,1,2.34-.81,3.1,3.1,0,0,1,2.73,1.17,15,15,0,0,0,1.12,1.14,4.48,4.48,0,0,1,0,6.18c-4.51,5.43-9.81,10.1-14.69,15.17-1.54,1.6-3.14,3.14-4.7,4.71a12.54,12.54,0,0,0-2.1,2.58c-.86,1.48-1,2.31.11,3.64s2.23,2.63,3.38,3.92c2.1,2.39,4.28,4.71,6.23,7.25,1.1,1.43,2.48,2.63,3.59,4.09,1.51,2,3.39,3.73,5,5.66,1.2,1.42,2.23,3,3.33,4.46.29.4.51,1.11.85,1.17a4.65,4.65,0,0,0,2.28-.2,5.8,5.8,0,0,0,1.85-1.28c3.83-3.62,7.56-7.35,11.47-10.87,3.49-3.14,7-6.21,10.48-9.38,2.41-2.21,5-4.26,7.46-6.39,3.18-2.75,6.49-5.35,9.67-8.1s6.76-5.45,10.2-8.1c3.16-2.44,6.34-4.85,9.5-7.28a17.53,17.53,0,0,0,4-4.75,15.59,15.59,0,0,0,1.93-5.56c.7-3.79,1.59-7.53,2.23-11.33.19-1.18,0-2.55.54-3.47.65-1.16,0-2.29.48-3.27.55-1.26.17-2.6.56-3.76s.14-2.61.53-3.77a16.83,16.83,0,0,0,.47-4.32c.1-1.17.67-2.26.56-3.51s-.35-2.43.49-3.5c0-.06,0-.17,0-.26-.39-3.24.55-6.39.58-9.62,0-4.18.75-8.34.49-12.54,1-3.07.09-6.27.59-9.34.58-3.66,0-7.36.59-10.94a74.89,74.89,0,0,0,.39-8.57c.07-1.72.8-3.32.6-5.1a40.49,40.49,0,0,1,0-5c0-.84.61-1.52.58-2.44,0-.75,1.23-1.52,2.1-1.55.61,0,1.23,0,1.84,0a5.85,5.85,0,0,1,.83,3.15c0,2,.39,3.92.48,5.89s-.36,4.17.11,6.09c.68,2.8.34,5.55.4,8.31,0,2.17.8,4.23.61,6.43a21.17,21.17,0,0,0,.05,6.36c.6,2.7.28,5.37.44,8,0,.36-.15.9,0,1,.8.65.11,2.27,1.21,2.38,1.26.12,1-1.42,1.23-2.13,1.79-5.28,3.71-10.52,5.62-15.76,1.84-5.07,3.24-10.33,5.74-15.16.15-2.37,1.65-4.29,2.19-6.55a4.49,4.49,0,0,1,2.83-3.33c1.65-.64,2.87-.08,3,1.64a16.5,16.5,0,0,1-.95,6c-.33,1-.24,2.13-.53,3.22a36,36,0,0,0-1,4.66c-.21,1.59-.58,3.16-.83,4.74-.3,1.8-.75,3.58-1.06,5.4a44.74,44.74,0,0,0-1,5.16c-1.14,1,.09,2.6-1.06,3.55.24,1.23-.34,2.33-.53,3.5a29.39,29.39,0,0,1-.57,3.76,50.47,50.47,0,0,0-1.08,5.14c-.32,1.63-.8,3.22-1.09,4.87-.31,1.81-.75,3.59-1.06,5.41a44.74,44.74,0,0,0-1,5.16c-1.14.94.08,2.6-1.07,3.54.26,1.24-.34,2.34-.52,3.51a28.71,28.71,0,0,1-.57,3.75c-.76,2.49-1.06,5.06-1.62,7.58a12.58,12.58,0,0,1-.56,2.94c-.65,1.2-.23,2,.19,3,3-2.15,6-4.26,8.87-6.47,1.45-1.09,2.74-2.38,4.13-3.55.78-.66,1.6-1.26,2.4-1.88s1.27-1.65,2.41-1.92c.37-.08.62-.6.95-.9,1.87-1.7,3.62-3.54,5.64-5,2.35-1.76,4.36-3.89,6.66-5.69a5,5,0,0,0,1.85-4.3,22.76,22.76,0,0,1,3.15-12,16.13,16.13,0,0,1,1.24-2.14c1.26-1.54,2.62-3,3.92-4.5q1.44-1.65,2.82-3.35c.93-1.12,2.35-1.83,2.84-3.34.08-.23.36-.38.55-.57a90,90,0,0,0,7.18-8.18c1.23-1.55,2.7-2.92,4-4.45a9.88,9.88,0,0,0,1.83-3.78,25,25,0,0,0,.62-3.21c.34-2.45,1.21-3.53,3.45-4.94a13.65,13.65,0,0,1,8.18-2.09c.34,0,.68,0,1.3,0-.37-.85-.68-1.48-.93-2.13s-1-1.74-.72-2.29c.53-1.18.62-2.58,1.72-3.56,1.59-1.4,3.06-3,4.53-4.49a8.12,8.12,0,0,0,1.76-2.19c.59-1.25,3.63-2.13,5-1.74.55.16,1.09.37,1.63.56,1.6.55,2.62.24,3.33-1.1a6.53,6.53,0,0,0,1-2.48c.1-2.9.39-5.85-1.08-8.57s-3.29-5.57-5.07-8.28c-1.91-2.91-3.66-5.92-5.51-8.88-2.68-4.31-5.42-8.58-8.17-12.85s-5.46-8.38-8.26-12.53c-.7-1-1.56-1.95-2.18-3.06s-1.53-1.84-2.21-2.82A62.77,62.77,0,0,0,500.56,153a130.69,130.69,0,0,0-10.3-8.42c-3-2.18-6.05-4.24-9.14-6.25a45.06,45.06,0,0,0-7.71-3.84c-2.88-1.18-5.53-2.91-8.39-4.15a9.37,9.37,0,0,1-3.07-2.2,2.43,2.43,0,0,1-.43-3.24c.7-1.27,1.17-2.75,2.76-3.36.45-.17.76-.72,1.14-1.09,2.07-2.07,4.11-4.16,6.21-6.2,5.36-5.22,10.6-10.58,16.19-15.55,3.22-2.86,6.05-6.12,9.35-8.85,2.92-2.41,5.4-5.26,8.25-7.7,1.1-.94,2.08-2.18,3.76-2.48a2,2,0,0,1,1.43.12,5.52,5.52,0,0,1,2.21,2.37c1.63,3.13,3,6.35,4.35,9.63,1.79,4.4,4,8.62,6.25,12.83a70.62,70.62,0,0,0,7,10.68c1.69,2.16,3.5,4.23,5.22,6.36,1.33,1.63,2.76,3.11,4.22,4.6A112.39,112.39,0,0,0,551,135.89c1.67,1.32,3.31,2.67,5,3.91,2.67,1.92,5.3,3.9,8,5.82,2.93,2.09,6,4,8.89,6.17a82,82,0,0,0,8.1,5.46c3.39,2,6.49,4.42,9.74,6.64,4,2.75,8.09,5.47,11.88,8.58,1.92,1.58,3.85,3.14,5.77,4.7a88,88,0,0,1,11.15,10.23c3.2,3.66,6.57,7.17,9.33,11.24,1.6,2.36,3.3,4.66,4.82,7.07a53.26,53.26,0,0,1,6.18,13.13,29.59,29.59,0,0,1,1.62,10.23c-.09,1.51-.06,3,0,4.52.07,1.87-1.08,6-2.08,8.71a32.16,32.16,0,0,1-2.74,5.51,20.86,20.86,0,0,1-2.65,3.42,79,79,0,0,1-5.65,5.63,27.5,27.5,0,0,1-6.19,4.27c-1.48.7-2.9,1.53-4.41,2.2a13.6,13.6,0,0,1-5.77,1.48c-1.06,0-2.13-.06-3.19,0-.91.06-1.81-.23-2.76.43a2.77,2.77,0,0,1-2.55,0,3.5,3.5,0,0,0-2.23-.42,26.14,26.14,0,0,1-9.48-2.18,40.76,40.76,0,0,1-8.48-4.6c-1.75-1.19-3.91-1.65-5.95-2.28-2.72-.83-5.53-.63-8.29-.48a30.88,30.88,0,0,0-6.15,1.16,45.31,45.31,0,0,0-5.55,2c-1.89.79-3.71,1.76-5.56,2.64a49.94,49.94,0,0,0-8.65,5.45c-2.87,2.17-5.67,4.4-8.39,6.75-3.14,2.73-6.21,5.54-9.35,8.26-2.18,1.89-4.08,4.09-6.34,5.84-2.51,1.95-4.5,4.42-6.93,6.4-1.55,1.26-3,2.63-4.45,4s-2.8,2.59-4.3,3.75a6.52,6.52,0,0,1-4.39,1.6c-3.82-.21-7,1.27-9.92,3.66-2.19,1.8-4.38,3.59-6.53,5.44-2.91,2.52-6,4.84-8.93,7.34-3.16,2.7-6.55,5.14-9.8,7.75-1.42,1.13-2.68,2.45-4.13,3.54-2.3,1.74-4.43,3.67-6.81,5.33a15.27,15.27,0,0,0-3.73,3.75,4.88,4.88,0,0,0-.71,4.18c1,3,1.58,6.07,2.39,9.1.5,1.83.79,3.74,1.28,5.59.85,3.28,1.76,6.56,2.47,9.86.53,2.44,1.43,4.78,1.83,7.25a10.59,10.59,0,0,0,1.27,3.18,63.62,63.62,0,0,0,5.26,7.92c2.4,3.2,5,6.23,7.28,9.5a19,19,0,0,1,3.22,7.44,37.74,37.74,0,0,1,1,7,5.41,5.41,0,0,1-.47,2.2c-.3.66.07,1.6-.1,2.35a18.52,18.52,0,0,1-1,2.23c-.26.69-.32,1.47-.64,2.13a14.39,14.39,0,0,1-1.29,1.86,7.16,7.16,0,0,1-1.34,1.81c-2.93,2-5.53,4.45-9.32,5.14a28.75,28.75,0,0,1-8.56.3,12,12,0,0,1-7.08-3.36c-2.23-2.22-4.65-4.29-6.37-6.94-1.4-2.16-2.74-4.4-2.64-7.14,0-.36,0-.71,0-1.06,0-4.86.08-5.82,1.61-10.24a47.92,47.92,0,0,0,2.73-9.53,59.91,59.91,0,0,1,1.07-5.93c.66-2.79.21-5.55.45-8.3.07-.75-.19-1.49.29-2.29.27-.46-.23-1.35-.29-2.06s0-1.6,0-2.39,0-1.6,0-2.4A13.3,13.3,0,0,0,441,363c-.46-1.24.22-2.69-.54-4-.34-.61,0-1.57-.08-2.36s-.54-1.48-.46-2.17c.15-1.33-1-2.09-1.18-3.27,0-.06-.7-.21-.85-.07a12.59,12.59,0,0,0-2.3,3.28c-3.47,5.83-5.61,12.22-7.83,18.56a37.93,37.93,0,0,0-1.15,5.37,52.77,52.77,0,0,0-1.1,12.85,13.36,13.36,0,0,0,.47,4.05c.45,1.24-.34,2.77.59,4-.26,2,.07,3.9-.39,5.93a26.85,26.85,0,0,1-2.14,6.05,20.39,20.39,0,0,1-13.16,11,17.39,17.39,0,0,0-4.89,2.3,6.29,6.29,0,0,0-1.74,1.92,30.66,30.66,0,0,1-6.59,7.87,32.11,32.11,0,0,0-4.21,3.84c-.59.7-1.26.46-1.87.7a7.3,7.3,0,0,1-6.56-.68c-.23-.12-.33-.49-.46-.75a4.71,4.71,0,0,1,.43-5.22,39.23,39.23,0,0,1,6.59-5.74,4.65,4.65,0,0,0,2.05-3.58c.27-2.86-1.38-5-2.63-7.17a28.48,28.48,0,0,1-2.79-6.57c-.83-3.05-.21-6.08-.46-9.1,1.3-4.58,2.7-9,6.24-12.6a45.36,45.36,0,0,1,7.32-5.55,47.34,47.34,0,0,0,8.71-7.19,35,35,0,0,0,4-6.57C414.48,367.25,414.05,366.63,414.09,365.82Zm-216-99.69a4.8,4.8,0,0,0-2.37,4.69c.11,1.26-.1,2.54.87,3.63,2.23,2.52,4.27,5.21,6.61,7.61,10.94,11.28,22.23,22.22,33.13,33.55,10.34,10.76,20.78,21.43,31.83,31.48,3,2.73,5.76,5.76,8.67,8.61,6.93,6.78,13.91,13.51,20.8,20.32a5.46,5.46,0,0,0,4.7,1.52,3.3,3.3,0,0,0,2.79-2.18c.62-1.31,0-2.13-.91-2.92a22.68,22.68,0,0,1-3.85-3.43,31.09,31.09,0,0,0-3.09-3.48q-48.66-48.67-97.35-97.34C199.31,267.57,198.76,266.88,198.09,266.13Zm332.28-127.8a7.85,7.85,0,0,0,3.06,5.43c1.45,1.16,3.05,2.16,4.42,3.41,3,2.71,6.11,5.24,9.32,7.69,2.43,1.85,4.67,4,7.28,5.57,4.09,2.42,7.58,5.75,11.92,7.77,6.38,4.63,13.09,8.77,19.45,13.45,3.61,2.66,7.08,5.5,10.66,8.19,1.33,1,2.37,2.39,3.61,3.53s2.52,2.1,3.7,3.22c1.45,1.37,2.69,2.94,4,4.42,2.37,2.63,4.71,5.27,7,8,1.77,2.18,3.42,4.42,5,6.7a6.71,6.71,0,0,0,2.56,2.11c.52.25.82.2,1.11-.19s.76-1.09,1.12-1.66c.11-.16.24-.43.18-.55-.67-1.23-1.29-2.5-2.08-3.66s-1.75-1.91-2.39-3c-2.17-3.72-5.12-6.83-8-9.95-3.44-3.74-7.32-7.07-11-10.58a3.3,3.3,0,0,0-.38-.37,52.72,52.72,0,0,1-5.58-4.52c-1-.86-2.09-1.76-3.19-2.56-2.93-2.11-6-4.09-8.81-6.3s-5.69-3.87-8.47-5.91-5.82-3.93-8.71-5.91-5.85-3.92-8.67-6c-4-3-8-6-11.86-9.21-3.09-2.54-6.29-4.92-9.43-7.37A7.52,7.52,0,0,0,530.37,138.33Zm-74,282.3a12.5,12.5,0,0,0,5-2.16,9.14,9.14,0,0,0,2.75-3.89,25.42,25.42,0,0,0,1.21-5.59c.09-.59-.5-1.27-.45-1.89a8.14,8.14,0,0,0-.6-3.48c-1-2.88-2.33-5.61-5-7.45s-5.18-1.68-7.95-.64a8.63,8.63,0,0,0-5.51,6.12c-.47,1.7-1.28,3.59-.61,5.26,1.25,3.11,1.82,6.47,3.63,9.38A9,9,0,0,0,456.39,420.63Zm-59.72-14.55.13,0c0,.35,0,.71,0,1.06.22,3.3,1.66,5.45,4.79,6.53a9.54,9.54,0,0,0,2.17.52c.88.09,1.77,0,2.65,0a3.53,3.53,0,0,0,3-1.18,24.76,24.76,0,0,0,3.33-3.93c1.47-2.46,3.16-4.84,4-7.63a7.58,7.58,0,0,0,0-4.8,24.67,24.67,0,0,0-1.84-3.76,6.16,6.16,0,0,0-4.65-3.13c-4.55-.62-7.94,1.59-10.66,5a9.75,9.75,0,0,0-1.65,3.28,28.21,28.21,0,0,0-.58,4C397.13,403.41,396.89,404.74,396.67,406.08Zm-36.75,18.31c-1.94,0-1.94,0-2.48,1.65-.46,1.4-.9,2.8-1.39,4.19-.6,1.73-.52,3.61-1.24,5.32a5.13,5.13,0,0,0,0,1.84c0,2.2,0,4.41,0,6.62a15.26,15.26,0,0,0,.91,4.39c.27,1,.49,1.79,1.65,2.23a21.63,21.63,0,0,1,3.5,2.15c.69-.77,1.32-1.38,1.85-2.07a7.09,7.09,0,0,0,1.6-2.5c.27-1.26.5-2.86,0-3.89-.65-1.21-.09-2.47-.85-3.65-.62-1-.38-2.46-.64-3.7-.4-1.94-.93-3.85-1.37-5.78C360.88,429,360.43,426.8,359.92,424.39Zm156-305c-.53-.59-.33-1.83-1.13-2.84A30.17,30.17,0,0,1,512.7,113a108.31,108.31,0,0,1-6.34-11.46,2,2,0,0,0-.43-.62c-.57-.62-1.26-.46-1.69.33a4.67,4.67,0,0,0,0,4.36c1.9,4.67,4.89,8.76,7.06,13.29.56,1.17,1.32,3,3.4,2.44,1.05,1,1-.16,1.26-.65C516,120.43,515.94,120.12,515.94,119.42Z"/><path d="M329.34,251.15c-1.11-1.09-2.27-2.1-3.25-3.26a1.65,1.65,0,0,1-.06-2.21c1.76-2.43,3.34-5,5.11-7.43a13,13,0,0,1,2.18-1.72c1.83-1.6,3.7-3.17,5.4-4.9,2.27-2.29,4.52-4.63,6.55-7.12.87-1.07,1.8-2.08,2.67-3.14a22,22,0,0,1,5.24-4.07,6.85,6.85,0,0,1,3.65-1.31,4.5,4.5,0,0,1,3.61,2.11c.44.69.84,1.41,1.39,2.32-1.64,1.32-3.29,2.66-4.95,4-2,1.59-4,3.13-6,4.73-1.21,1-2.35,2-3.55,3s-1.92,2.52-3.53,3c-.1,0-.13.28-.18.44-.11.34-.34.72-.26,1s.49.44.79.56.53,0,.79,0c1.72.22,3.46-.41,5.17.35s3.47-.47,5,.7a.51.51,0,0,0,.49-.05c1.23-1.37,2.34.54,3.6.13.49-.16,1.62,1.76,1.37,2.46s-.37,1.53-1.61,1.82a19.71,19.71,0,0,1-5.7,1c-.79-.05-1.59,0-2.39,0-2-.13-3.92.18-5.91-.45s-2.42.12-2.43,2.19c0,1.68-.33,3.45.07,5,.57,2.21.84,4.55,2.05,6.58a4,4,0,0,1,.52,1.11c.15.65-.61,1.71-1.05,1.46-1.53-.84-3.46-.3-4.87-1.8s-2.85-3.35-3.1-5.34a3.62,3.62,0,0,1-.1-2,3,3,0,0,0-.35-2.9c.89-.79.26-1.83.42-2.74a.7.7,0,0,0-.32-.59.75.75,0,0,0-.67.22C333.77,247,331.58,248.92,329.34,251.15Z"/><path d="M443.52,180.37a14.25,14.25,0,0,0,5.17,3.63,5.49,5.49,0,0,0,6.86-1.62,2.31,2.31,0,0,0,.28-1.2,37.92,37.92,0,0,0,0-4,2,2,0,0,1,.89-1.77,1.26,1.26,0,0,1,2,0,4.91,4.91,0,0,1,.86,1,14,14,0,0,1,1.57,4.66c.34,1.7-.68,3.07-1.65,4.34a12.23,12.23,0,0,1-6.07,3.92c-.23.08-.59.08-.69.23-.63,1.05-1.65.81-2.59.84-1.55,0-3-.52-4.55-.66-1.18-.11-2.25-1.32-3.35-2.07-.43-.29-.74-.79-1.2-1-2.9-1.16-4.89-3.45-7-5.62a5.13,5.13,0,0,1-1.46-2.55c-.29-2.09-1.91-3.75-1.76-5.93-1.11-1.32-.44-2.87-.49-4.3a4.74,4.74,0,0,1,2.08-4.13c1.7-1.11,3.29-2.64,5.6-2.51a7.94,7.94,0,0,1,2.38.3,13,13,0,0,1,6.88,7.94,15.75,15.75,0,0,1,1.15,4.07c.13,2.09-.95,3.42-2.35,4.62C445.32,179.21,444.44,179.73,443.52,180.37Zm-7.42-13.83c.32,1.3,0,2.49.4,3.83a38.21,38.21,0,0,0,2.95,5.94,3.61,3.61,0,0,0,1.57,1.26c.31.17,1.5-1.11,1.48-1.85,0-1.08.39-2.18-.45-3.26s-1-2.23-1.66-3.26C439.46,167.7,438.52,166.06,436.1,166.54Z"/><path d="M351.6,270.52c-.18,2.23.56,3.8,2.59,4.59a4.83,4.83,0,0,0,1.45.32,21.88,21.88,0,0,0,3.71,0c1-.14,1.25.52,1.62,1.16.49.87,0,1.4-.53,2-.86.94-2.09,1-3.12,1.47s-2.25-.2-3.16.7a13.4,13.4,0,0,1-3.12-1.41,13.11,13.11,0,0,1-4.2-6.19c-.44-1.31-1.58-2.5-1.1-4.05.39-1.23.34-2.54.62-3.74a8.69,8.69,0,0,1,2-3.38,22.24,22.24,0,0,0,1.65-2.52c2.13-3.36,4.71-6.33,8.56-7.69,2.16-.76,4.26-1.92,6.66-1.86,1.27-1,2.6,0,3.79.12s2.18,1.22,3.06,2.1a13.79,13.79,0,0,1,1.54,2.52,6,6,0,0,1-.74,7.23c-.56.63-.94,1.41-1.53,2a13.18,13.18,0,0,1-2,1.52,20.81,20.81,0,0,1-4.73,2c-.53.19-1.09.3-1.65.51-1.57.6-4.73-1.08-5.51-2.44-.12-.21-.13-.5-.27-.68-1.5-1.92-2-1.91-3.33.15-.49.75-.81,1.62-1.34,2.35A4.09,4.09,0,0,0,351.6,270.52Zm17.91-14.72a13.51,13.51,0,0,0-9.88,3.4c-.48.4-1.44.85-1.06,1.6a3,3,0,0,0,1.8,1.29,3.92,3.92,0,0,0,2.6,0c1.94-1.08,4-1.91,5.73-3.45A2.39,2.39,0,0,0,369.51,255.8Z"/><path d="M400,233.74c0,.8,0,1.6,0,2.39a3.52,3.52,0,0,1-1.56,3.32c-2.58,1.62-5.07,3.55-8.35,3.56-1.62,1.16-3.26-.08-4.87-.12-1.22,0-2.38-1.19-3.27-2.24-.43-.51-.69-1.17-1.15-1.64a30.05,30.05,0,0,1-4-5,37.84,37.84,0,0,0-4.85-6,40.76,40.76,0,0,1-6-8.16c-.74-1.29-1.48-2.58-2.26-3.84a3.94,3.94,0,0,1-1-2.53c.09-.74-.25-1.54.51-2.19,1.1-.93,1.94-2.18,3.54-2.38a2.48,2.48,0,0,1,2.87,1.64c1.78,4.15,4.7,7.6,7,11.42a53.76,53.76,0,0,0,4.83,6c1.75,2.11,3.53,4.2,5.25,6.33a7.94,7.94,0,0,0,3.15,2,3.3,3.3,0,0,0,4.7-2.9c0-1.74.87-3.34.6-5.1-.1-.62.93-1.69,1.55-1.85s1.11.28,1.56.72a5.32,5.32,0,0,1,1.65,3.84C400,232,400,232.86,400,233.74Z"/><path d="M307.87,226.63c-1.2-.12-2.42-.15-3.6-.37-1.72-.33-2.42-2-3.08-3.19-1.06-2-2.43-4-2.26-6.48-1.29-1.63-.12-3.31.12-4.86a5.4,5.4,0,0,1,2.67-3.59,18.27,18.27,0,0,0,2.75-2.31c1-.88,2-2.06,3.19-2.56,1.69-.68,2.75-2,4-3.06,3.44-2.86,6.56-6.16,10.71-8.1a16.49,16.49,0,0,0,3.63-2.09,4.23,4.23,0,0,1,2.93-1.11,4.59,4.59,0,0,1,2.91,2.35c1.67,2.63,1.35,3.53-1.45,5.11a113.7,113.7,0,0,0-11.26,7.46,104.52,104.52,0,0,0-8.34,6.78,13,13,0,0,1-2.61,2c-1.62.85-2.05,2.49-2.71,3.9a3.32,3.32,0,0,0,3,4.62,17.36,17.36,0,0,1,5.09.6c.64.19,1.55.16,1.76,1.07a2.09,2.09,0,0,1-1,2.26,13.89,13.89,0,0,1-3.92,1.42c-.89,0-1.77,0-2.66,0Z"/><path d="M429.83,210c.27,0-.2.12-.39-.07-1.23-1.26-3-1.4-4.43-2.2s-2.46-2-4-2.52c-.53-.18-.89-.84-1.33-1.27-2.19-2.2-4.35-4.42-6.59-6.57-1.56-1.5-3.23-2.88-4.84-4.34-.28-.26-.7-.68-.64-.92a4,4,0,0,1,.93-2,9.53,9.53,0,0,1,2.62-1.34,1.26,1.26,0,0,1,.93.15c.13,1.16,1.34,1.14,1.93,1.81a30.77,30.77,0,0,0,5.52,4.57c1.46,1,2.75,2.35,4.12,3.54s2.73,2.39,4.11,3.56a.76.76,0,0,0,.69.1.72.72,0,0,0,.23-.66,22.15,22.15,0,0,0-1.46-3.12c-1.42-2.34-3.15-4.47-4.4-6.94a46.81,46.81,0,0,1-3.15-9.33,13.7,13.7,0,0,1-.52-3,3.07,3.07,0,0,1,3.66-2.92,3,3,0,0,1,1.6,1.51c1.58,3.52,3.79,6.73,4.93,10.46a18,18,0,0,0,1.64,2.77c.87,1.67,1.6,3.42,2.53,5.06,1.15,2,2.44,4,3.68,5.91.1.15.3.24.37.39a4.75,4.75,0,0,1,.61,1.8c0,.4-.62.92-1.07,1.11-1.61.67-2.5,2.13-3.71,3.23A4.23,4.23,0,0,1,429.83,210Z"/><path d="M391.92,208.89a8.23,8.23,0,0,1,3.73-6.29c.54-.39,1.11-.72,1.68-1.07,3.59-2.16,6.93-1,10.15.88A5.7,5.7,0,0,1,410.1,205c.1.23.53.44.5.57-.43,1.68,1.07,2.11,1.91,2.88a17.51,17.51,0,0,1,4.23,6.48,9.74,9.74,0,0,1,.8,5c0,.24,0,.58-.19.7-2,1.64-3.3,3.93-5.9,5-3.17,1.25-5.47,1.09-8.14-.73-1.79-1.23-3.83-2.25-5.27-3.81a33.55,33.55,0,0,1-4-5.21A14.47,14.47,0,0,1,391.92,208.89Zm19.24,8.88c0-.53.2-1.19,0-1.56-.57-.86-.64-2-1.16-2.68-.78-1-1.12-2.26-2-3.19-.29-.31-.63-.76-1-.8-1.94-.18-3.39-1.4-4.81-2.45a2.93,2.93,0,0,0-3.72-.23c-.23.14-.57.37-.59.59-.23,2.47.16,4.75,2.07,6.56,1.22,1.15,2.32,2.44,3.59,3.53a27.75,27.75,0,0,0,3.29,2.26c1.12.72,2.37.27,3.56.26.25,0,.61-.59.73-1A4.46,4.46,0,0,0,411.16,217.77Z"/><path d="M335.26,221.15a2.67,2.67,0,0,1-1.08,2.33,63.19,63.19,0,0,1-5.31,5.18,62,62,0,0,0-6.09,5.7c-1.29,1.25-2.38,2.71-3.58,4.06a3.25,3.25,0,0,1-1,.84,1.4,1.4,0,0,1-1-.08c-.14-.05-.15-.44-.21-.68-.22-1-1.58-1.22-1.62-2.47-.13-3.33.32-4.74,2.57-7a55.2,55.2,0,0,1,4.14-4.1,112.76,112.76,0,0,0,8.56-8.09c.52-.53,1.16-.66,1.6-.28a13,13,0,0,1,2.27,2.49A8,8,0,0,1,335.26,221.15Z"/><path d="M341.57,214.83c-1.05.25-1.42-.74-2.11-1.2-.9-.59-.46-1.7-1.06-2.38.72-1.9.92-4.05,3.29-5,1.93-.76,2.77-.59,4.2.92a15.54,15.54,0,0,1,2.37,3.52,1.11,1.11,0,0,1-.3,1.6,22.8,22.8,0,0,1-6.09,2.5A1.37,1.37,0,0,1,341.57,214.83Z"/></svg>