<?xml version="1.0" ?><svg id="icon" viewBox="0 0 512 512" xmlns="http://www.w3.org/2000/svg"><defs><style>.cls-1{fill:#daa748;}.cls-1,.cls-2,.cls-3,.cls-4{stroke:#526b77;}.cls-1,.cls-4{stroke-linejoin:round;}.cls-1,.cls-2{stroke-width:10px;}.cls-2{fill:none;}.cls-2,.cls-3{stroke-miterlimit:10;}.cls-3{fill:#f7e6b2;}.cls-3,.cls-4{stroke-width:5px;}.cls-4{fill:#e2e155;stroke-linecap:round;}</style></defs><title/><path class="cls-1" d="M335,416v32H177V416s19.32-17.36,61-21.46V313.67h36v80.87C315.68,398.64,335,416,335,416Z"/><path class="cls-2" d="M331.57,127.67c68.67,0,85.85,54-28,137.33"/><path class="cls-2" d="M179.56,127.67c-67.58,0-84.49,54,27.56,137.33"/><path class="cls-1" d="M256,331c-82.85,0-87-257-87-257s36.23-10,87-10,87,10,87,10S338.85,331,256,331Z"/><circle class="cls-3" cx="256" cy="174.6" r="50.77"/><path class="cls-4" d="M265,150.68v50.5H251.42V162.13h-7.49V150.68Z"/></svg>